HIERARCHY
ROOT Hips
{
	OFFSET 0.000000 0.000000 0.000000 
	CHANNELS 6 Xposition Yposition Zposition Yrotation Zrotation Xrotation 
	JOINT Lumbar
	{
		OFFSET 0.000000 0.000000 0.000000 
		CHANNELS 3 Zrotation Xrotation Yrotation
		JOINT Neck
		{
			OFFSET 0.000000 0.445665 0.000000 
			CHANNELS 3 Zrotation Xrotation Yrotation
			End Site
			{
				OFFSET 0.000000 0.227535 0.000000 
			}
		}
		JOINT RightShoulder
		{
			OFFSET 0.019635 0.377685 0.194865 
			CHANNELS 3 Zrotation Xrotation Yrotation
			JOINT RightElbow
			{
				OFFSET 0.000000 -0.243375 0.000000 
				CHANNELS 2 Zrotation Yrotation
				JOINT RightWrist
				{
					OFFSET 0.000000 -0.264825 0.000000 
					CHANNELS 2 Zrotation Xrotation
					End Site
					{
						OFFSET 0.006600 -0.176220 0.000990 
					}
				}
			}
		}
		JOINT LeftShoulder
		{
			OFFSET 0.019635 0.377685 -0.194865 
			CHANNELS 3 Zrotation Xrotation Yrotation
			JOINT LeftElbow
			{
				OFFSET 0.000000 -0.243375 0.000000 
				CHANNELS 2 Zrotation Yrotation
				JOINT LeftWrist
				{
					OFFSET 0.000000 -0.264825 0.000000 
					CHANNELS 2 Zrotation Xrotation
					End Site
					{
						OFFSET 0.006600 -0.176220 -0.000990 
					}
				}
			}
		}
	}
	JOINT RightHip
	{
		OFFSET 0.052140 -0.069960 0.075570 
		CHANNELS 3 Zrotation Xrotation Yrotation
		JOINT RightKnee
		{
			OFFSET 0.000000 -0.402270 0.000000 
			CHANNELS 1 Zrotation
			JOINT RightAnkle
			{
				OFFSET 0.000000 -0.404085 0.000000 
				CHANNELS 3 Zrotation Xrotation Yrotation
				End Site
				{
					OFFSET 0.204105 -0.089430 0.008415 
				}
			}
		}
	}
	JOINT LeftHip
	{
		OFFSET 0.052140 -0.069960 -0.075570 
		CHANNELS 3 Zrotation Xrotation Yrotation
		JOINT LeftKnee
		{
			OFFSET 0.000000 -0.402270 0.000000 
			CHANNELS 1 Zrotation
			JOINT LeftAnkle
			{
				OFFSET 0.000000 -0.404085 0.000000 
				CHANNELS 3 Zrotation Xrotation Yrotation
				End Site
				{
					OFFSET 0.204105 -0.089430 -0.008415 
				}
			}
		}
	}
}
MOTION
Frames: 27
Frame Time: 0.02
0.91252 -0.02539 0.05028 174.7789 -40.09703 -0.88223 43.00261 -0.40565 9.81454 -5.69789 9.05883 -0.83079 82.6215 -25.14557 60.12596 50.76307 51.91815 19.32079 -8.70541 7.83296 26.91485 -21.67528 115.3854 -75.28755 -13.13872 1.66204 63.48106 -16.34892 11.38435 -24.66905 -10.8509 -3.59656 -2.72973 55.14611 14.67532 2.70981 -35.17599 -8.18913 3.73186 2.67231
0.90478 -0.02761 0.0359 175.16761 -40.11365 -0.81304 43.2143 -0.35355 9.6514 -5.99365 9.13987 -0.83079 87.03612 -25.02586 60.87649 45.04621 49.77974 21.24343 -8.60817 6.74255 25.987 -21.56968 115.4799 -72.46592 -13.64867 1.15311 63.74744 -16.531 11.1714 -25.82071 -10.68393 -3.43878 -2.62399 54.82744 15.25743 1.66393 -35.24247 -8.27467 3.80919 2.72302
0.89627 -0.02993 0.01981 175.6853 -40.15963 -0.7504 43.48962 -0.24802 9.32797 -6.38125 9.10533 -0.83079 91.80137 -25.41983 61.74571 39.44537 50.06252 21.31206 -8.439 5.40401 25.03 -21.22413 115.62979 -68.98411 -14.36742 0.29572 64.03684 -16.56389 10.57078 -27.41143 -10.40638 -3.24684 -2.49066 54.51674 15.75155 -0.0206 -35.2608 -8.4195 3.93799 2.80639
0.88816 -0.03212 0.00447 176.14901 -40.2035 -0.67753 43.73724 -0.16142 9.06659 -6.72343 9.10697 -0.83079 96.38091 -25.59439 62.51599 33.9 49.23724 22.17761 -8.31958 4.18646 24.10161 -20.98982 115.7423 -65.98964 -14.94828 -0.35437 64.3102 -16.6589 10.11355 -28.77854 -10.17781 -3.07535 -2.37323 54.2183 16.29697 -1.36725 -35.29116 -8.54075 4.03522 2.87035
0.87982 -0.03467 -0.01081 176.59676 -40.19946 -0.6344 43.98253 -0.09746 8.84924 -7.08732 9.17898 -0.83079 101.0355 -25.67517 63.40945 27.88112 48.30532 23.3185 -8.12831 2.90512 23.09614 -20.73051 115.91221 -62.21475 -15.70368 -1.19514 64.60903 -16.78065 9.78207 -30.26714 -9.95228 -2.88117 -2.24043 53.85078 16.80704 -2.89354 -35.36474 -8.64572 4.16323 2.95139
0.87178 -0.03649 -0.02658 177.10802 -40.30237 -0.5304 44.24618 0.02593 8.50108 -7.42395 9.07474 -0.83079 105.6215 -26.08708 64.09684 22.88639 48.24272 23.40877 -8.06627 1.72202 22.25435 -20.48075 115.97019 -59.89458 -16.14946 -1.72971 64.85935 -16.80995 9.10651 -31.59688 -9.69602 -2.727 -2.13363 53.63038 17.36204 -4.20419 -35.33563 -8.79991 4.24146 3.00586
0.86466 -0.03638 -0.04343 177.75018 -40.69322 -0.26747 44.55146 0.30592 7.85125 -7.68111 8.53333 -0.83079 110.04446 -27.28469 64.22837 20.64606 49.7483 21.11816 -8.41909 0.7173 21.80847 -20.2158 115.74372 -61.8828 -15.67264 -1.3068 64.97182 -16.62327 7.51237 -32.41025 -9.37002 -2.68988 -2.10445 53.80741 18.09985 -4.77978 -35.04235 -9.07001 4.16138 2.97395
0.8579 -0.03552 -0.06067 178.45327 -41.19057 0.05821 44.87136 0.64297 7.07237 -7.90372 7.81491 -0.83079 114.36876 -28.80545 64.15106 19.44391 52.0988 17.81491 -8.89741 -0.14352 21.54283 -19.99073 115.39376 -65.33712 -14.88372 -0.56996 65.03379 -16.34769 5.59757 -33.04034 -9.01935 -2.69474 -2.1027 54.13364 18.87753 -5.11607 -34.646 -9.38866 4.03139 2.91537
0.85106 -0.03494 -0.07761 179.13659 -41.63969 0.36259 45.18017 0.95023 6.33922 -8.12935 7.16335 -0.83079 118.67564 -30.18223 64.15124 17.79623 54.24682 14.91543 -9.29221 -0.97484 21.2347 -19.81099 115.07694 -68.03089 -14.24557 0.00284 65.11792 -16.11076 3.87279 -33.73273 -8.68795 -2.68181 -2.08916 54.39635 19.61147 -5.55488 -34.29149 -9.68916 3.93005 2.87252
0.84384 -0.03461 -0.09514 179.79216 -42.0901 0.63831 45.51057 1.27535 5.65335 -8.41129 6.56399 -0.83079 123.27034 -31.55499 64.22599 16.0361 55.74371 12.17414 -9.79614 -2.23944 20.75154 -19.34509 114.86535 -71.08566 -13.56498 0.65122 65.20755 -15.87654 1.94964 -34.53046 -8.31854 -2.66233 -2.07181 54.64151 20.45132 -6.04368 -33.95572 -9.97598 3.80518 2.81551
0.8375 -0.0336 -0.1115 180.51694 -42.56149 0.98616 45.79794 1.57649 4.84246 -8.56715 5.81677 -0.83079 127.22064 -33.0178 64.09685 14.76193 58.72521 8.9078 -10.10365 -2.53436 20.68552 -19.50012 114.39669 -73.76279 -12.91091 1.22467 65.27177 -15.61691 0.36574 -35.05809 -8.02399 -2.66678 -2.06923 54.95821 21.08036 -6.361 -33.55798 -10.30107 3.7169 2.78127
0.83342 -0.03087 -0.12469 181.42771 -43.07519 1.53955 45.96897 1.79367 3.70228 -8.37766 4.69342 -0.83079 129.53394 -34.551 63.42092 14.52366 65.94137 4.26474 -9.83659 -0.44265 21.64276 -21.25067 113.3064 -74.88842 -12.27354 1.48493 65.29199 -15.31403 -0.17405 -34.89383 -7.9419 -2.72847 -2.10138 55.4384 21.1239 -6.28238 -33.00746 -10.72753 3.74074 2.81585
0.83023 -0.02751 -0.13665 182.40278 -43.60405 2.15915 46.09498 1.98487 2.4451 -8.06339 3.43037 -0.83079 131.15951 -36.17981 62.54119 14.75052 74.543 -0.82952 -9.36771 2.66616 23.02599 -23.64207 111.94471 -75.6122 -11.6944 1.66559 65.28564 -14.98807 -0.36338 -34.46032 -7.93661 -2.81281 -2.14752 55.98437 20.95294 -6.03395 -32.40033 -11.18859 3.80292 2.87407
0.82668 -0.02446 -0.14908 183.34229 -44.11924 2.73446 46.23705 2.19055 1.25173 -7.80904 2.23877 -0.83079 133.04473 -37.82726 61.79244 14.79452 82.2791 -5.59428 -8.99313 5.482 24.27426 -25.81848 110.67635 -76.6249 -11.17858 1.90443 65.28236 -14.67047 -0.73191 -34.14155 -7.89687 -2.88586 -2.1869 56.49934 20.87671 -5.84611 -31.82298 -11.6292 3.84827 2.9219
0.82294 -0.02126 -0.16191 184.31389 -44.66762 3.37266 46.39735 2.38826 0.00617 -7.53858 1.00595 -0.83079 135.22758 -39.22376 60.92359 14.74319 91.05769 -10.92324 -8.61384 7.59992 25.29576 -27.69193 109.55433 -77.25003 -10.28539 2.0634 65.31556 -14.36012 -1.03348 -33.84797 -7.85424 -2.96409 -2.22867 57.02659 20.81428 -5.7154 -31.22205 -12.09363 3.89012 2.96794
0.8198 -0.01824 -0.17359 185.22921 -45.14805 3.89384 46.5099 2.59404 -1.15345 -7.27425 -0.17018 -0.83079 136.53115 -41.16189 60.19766 15.00137 97.96308 -15.1679 -8.19249 11.3964 26.87021 -30.32587 108.03465 -78.55486 -10.18044 2.36287 65.26688 -14.02852 -1.37983 -33.44143 -7.83628 -3.03696 -2.26873 57.53892 20.67058 -5.43456 -30.66171 -12.51332 3.9481 3.02292
0.81816 -0.01578 -0.1825 186.00543 -45.44507 4.08334 46.49174 2.84161 -2.07336 -7.04156 -1.16805 -0.83079 136.42212 -44.54926 60.4539 15.87687 99.52346 -16.32404 -7.72489 19.6992 30.02604 -35.08974 105.75072 -81.9344 -12.37394 3.09269 65.00066 -13.66093 -1.99669 -32.77942 -7.8674 -3.08417 -2.29785 58.01862 20.36409 -4.72618 -30.19802 -12.82359 4.04901 3.10318
0.81708 -0.01352 -0.19027 186.71606 -45.671 4.1511 46.42883 3.09529 -2.89643 -6.82206 -2.10026 -0.83079 135.30558 -48.46922 60.7688 17.06623 99.12106 -16.36506 -7.21838 29.62707 33.69532 -40.55865 103.03412 -85.98093 -15.33499 3.95997 64.65275 -13.27053 -2.65849 -32.01575 -7.92086 -3.12583 -2.32507 58.4754 19.98143 -3.88258 -29.78363 -13.08306 4.16342 3.19046
0.8157 -0.0112 -0.1985 187.43589 -45.92393 4.26918 46.39277 3.33746 -3.74694 -6.60757 -3.05419 -0.83079 134.08076 -52.17375 60.69621 18.18689 99.49617 -16.90082 -6.71451 38.73912 37.02166 -45.58608 100.3313 -89.65594 -17.85677 4.74889 64.3412 -12.87925 -3.25694 -31.30559 -7.96447 -3.17355 -2.35496 58.92608 19.62729 -3.13947 -29.36575 -13.35084 4.26703 3.27062
0.81452 -0.00872 -0.20697 188.2467 -46.20053 4.41049 46.32762 3.61629 -4.67467 -6.3439 -4.04973 -0.83079 135.1753 -55.81799 62.11041 19.00983 100.37969 -17.5039 -6.26352 48.23771 40.8165 -51.15988 98.3601 -93.62739 -20.76166 5.60595 64.03216 -12.53257 -4.02115 -30.55468 -8.00964 -3.20785 -2.37809 59.45 19.29092 -2.23088 -28.86389 -13.68265 4.39245 3.36865
0.81306 -0.00663 -0.21466 188.84944 -46.40991 4.47395 46.31305 3.81971 -5.41314 -6.18535 -4.93824 -0.83079 131.26736 -59.6522 60.48128 20.5243 99.74994 -17.69582 -5.70035 57.27292 43.76341 -55.73865 94.80448 -97.11885 -23.05089 6.35018 63.69853 -12.09043 -4.45962 -29.86849 -8.05565 -3.26762 -2.41419 59.81363 18.90289 -1.63031 -28.55202 -13.86808 4.47417 3.43026
0.81068 -0.00558 -0.22065 188.91135 -46.45808 4.3487 46.44979 3.82081 -5.68448 -6.33345 -5.57035 -0.83079 113.29873 -64.40497 50.1269 23.83631 95.1522 -17.02343 -4.79852 64.8732 44.14004 -57.52053 86.66055 -99.34671 -23.44872 6.78836 63.32039 -11.36901 -3.95159 -29.38391 -8.09992 -3.4064 -2.49051 59.75195 18.38671 -1.97289 -28.72962 -13.66622 4.44084 3.39469
0.808 -0.00493 -0.22586 188.76251 -46.43983 4.14938 46.63954 3.74479 -5.76193 -6.58451 -6.09137 -0.83079 90.4339 -69.2355 36.77311 27.83319 89.14052 -15.97503 -3.79343 71.88877 43.66153 -58.24334 77.0062 -101.0307 -23.20297 7.1017 62.92012 -10.55661 -3.12274 -28.96986 -8.14363 -3.56948 -2.57914 59.52743 17.82336 -2.61986 -29.10034 -13.31822 4.36167 3.32147
0.80547 -0.00411 -0.23132 188.69819 -46.44712 3.98625 46.80424 3.69901 -5.90697 -6.77537 -6.64817 -0.83079 70.12801 -73.68177 24.98625 31.54266 83.94835 -15.09586 -2.86169 79.02316 43.64157 -59.37597 68.24353 -102.81502 -23.25127 7.4464 62.5275 -9.7997 -2.466 -28.52598 -8.18626 -3.71652 -2.65949 59.36913 17.28501 -3.0894 -29.39931 -13.03344 4.29685 3.26166
0.80293 -0.00325 -0.23718 188.67903 -46.47094 3.80923 46.96954 3.6727 -6.13625 -7.02052 -7.26738 -0.83079 48.34515 -79.60587 12.31226 35.18066 77.94976 -14.17955 -1.81646 86.88401 43.3495 -60.86453 58.56526 -105.23266 -23.31113 7.90134 62.14097 -8.98149 -1.69912 -28.06837 -8.23528 -3.88457 -2.75113 59.24198 16.7275 -3.71937 -29.63635 -12.75862 4.25803 3.21651
0.80032 -0.00256 -0.24202 188.51674 -46.44627 3.64388 47.14912 3.58875 -6.14417 -7.18027 -7.72789 -0.83079 28.52923 -82.48084 0.80875 39.1036 73.31021 -13.27269 -0.98419 93.01027 43.4082 -61.3144 50.48339 -106.20549 -23.19489 8.09728 61.73909 -8.27066 -1.08542 -27.65826 -8.27063 -4.0146 -2.82215 59.01275 16.20138 -4.08902 -30.0426 -12.43125 4.15634 3.13332
0.79755 -0.00224 -0.24439 188.01045 -46.29713 3.54037 47.33492 3.35296 -5.59865 -7.05055 -7.80489 -0.83079 15.0044 -76.76474 -7.03661 43.83756 72.86612 -12.42675 -0.7607 95.00714 44.68639 -59.47237 46.81573 -103.21372 -22.64597 7.58991 61.28781 -7.87064 -0.96845 -27.35673 -8.26751 -4.03464 -2.83383 58.53132 15.75929 -3.66945 -30.91204 -11.97515 3.8715 2.94101
